<?xml version="1.0" encoding="UTF-8" standalone="no"?>
<!-- Created with Inkscape (http://www.inkscape.org/) -->

<svg
   xmlns:dc="http://purl.org/dc/elements/1.1/"
   xmlns:cc="http://creativecommons.org/ns#"
   xmlns:rdf="http://www.w3.org/1999/02/22-rdf-syntax-ns#"
   xmlns:svg="http://www.w3.org/2000/svg"
   xmlns="http://www.w3.org/2000/svg"
   xmlns:sodipodi="http://sodipodi.sourceforge.net/DTD/sodipodi-0.dtd"
   xmlns:inkscape="http://www.inkscape.org/namespaces/inkscape"
   width="411.78592mm"
   height="195.83214mm"
   viewBox="0 0 411.78593 195.83212"
   version="1.1"
   id="svg8"
   inkscape:version="0.92.3 (2405546, 2018-03-11)"
   sodipodi:docname="align.svg">
  <defs
     id="defs2" />
  <sodipodi:namedview
     id="base"
     pagecolor="#ffffff"
     bordercolor="#666666"
     borderopacity="1.0"
     inkscape:pageopacity="0.0"
     inkscape:pageshadow="2"
     inkscape:zoom="0.35"
     inkscape:cx="1051.7369"
     inkscape:cy="658.54318"
     inkscape:document-units="mm"
     inkscape:current-layer="layer1"
     showgrid="false"
     inkscape:window-width="1366"
     inkscape:window-height="713"
     inkscape:window-x="0"
     inkscape:window-y="27"
     inkscape:window-maximized="1"
     fit-margin-top="0"
     fit-margin-left="0"
     fit-margin-right="0"
     fit-margin-bottom="0"
     showguides="true"
     inkscape:guide-bbox="true">
    <sodipodi:guide
       position="126.15122,131.7247"
       orientation="0,1"
       id="guide1052"
       inkscape:locked="false" />
    <sodipodi:guide
       position="-66.282842,66.282842"
       orientation="0,1"
       id="guide1054"
       inkscape:locked="false" />
    <sodipodi:guide
       position="58.799293,279.02938"
       orientation="1,0"
       id="guide1056"
       inkscape:locked="false" />
    <sodipodi:guide
       position="126.15122,258.71688"
       orientation="1,0"
       id="guide1058"
       inkscape:locked="false" />
    <sodipodi:guide
       position="274.75307,231.98993"
       orientation="1,0"
       id="guide1060"
       inkscape:locked="false" />
    <sodipodi:guide
       position="349.58856,186.01958"
       orientation="1,0"
       id="guide1062"
       inkscape:locked="false" />
  </sodipodi:namedview>
  <metadata
     id="metadata5">
    <rdf:RDF>
      <cc:Work
         rdf:about="">
        <dc:format>image/svg+xml</dc:format>
        <dc:type
           rdf:resource="http://purl.org/dc/dcmitype/StillImage" />
        <dc:title></dc:title>
      </cc:Work>
    </rdf:RDF>
  </metadata>
  <g
     inkscape:label="Calque 1"
     inkscape:groupmode="layer"
     id="layer1"
     transform="translate(-7.5508957,-51.140927)">
    <path
       style="opacity:1;fill:none;fill-opacity:1;stroke:#000000;stroke-width:4;stroke-miterlimit:4;stroke-dasharray:none;stroke-opacity:1"
       id="path815"
       sodipodi:type="arc"
       sodipodi:cx="105.384"
       sodipodi:cy="149.13995"
       sodipodi:rx="95.833107"
       sodipodi:ry="95.833107"
       sodipodi:start="3.1467414"
       sodipodi:end="3.1415927"
       sodipodi:open="true"
       d="M 9.5521659,148.64654 A 95.833107,95.833107 0 0 1 105.75407,53.307561 95.833107,95.833107 0 0 1 201.21679,149.38667 95.833107,95.833107 0 0 1 105.26064,244.97298 95.833107,95.833107 0 0 1 9.5508957,149.13995" />
    <path
       style="opacity:1;fill:#ff0000;fill-opacity:1;stroke:none;stroke-width:0.94383341;stroke-miterlimit:4;stroke-dasharray:none;stroke-opacity:1"
       id="path815-3-6"
       sodipodi:type="arc"
       sodipodi:cx="66.089455"
       sodipodi:cy="183.59705"
       sodipodi:rx="16.053595"
       sodipodi:ry="16.053595"
       sodipodi:start="3.1467414"
       sodipodi:end="3.1415927"
       sodipodi:open="true"
       d="M 50.036073,183.51439 A 16.053595,16.053595 0 0 1 66.151447,167.54357 16.053595,16.053595 0 0 1 82.142996,183.63837 16.053595,16.053595 0 0 1 66.06879,199.65063 16.053595,16.053595 0 0 1 50.03586,183.59705" />
    <path
       style="opacity:1;fill:#ff0000;fill-opacity:1;stroke:none;stroke-width:0.94383347;stroke-miterlimit:4;stroke-dasharray:none;stroke-opacity:1"
       id="path815-3-6-7"
       sodipodi:type="arc"
       sodipodi:cx="66.817383"
       sodipodi:cy="115.55912"
       sodipodi:rx="16.053595"
       sodipodi:ry="16.053595"
       sodipodi:start="3.1467414"
       sodipodi:end="3.1415927"
       sodipodi:open="true"
       d="M 50.764001,115.47646 A 16.053595,16.053595 0 0 1 66.879375,99.505645 16.053595,16.053595 0 0 1 82.870924,115.60045 16.053595,16.053595 0 0 1 66.796718,131.6127 16.053595,16.053595 0 0 1 50.763788,115.55912" />
    <path
       style="opacity:1;fill:#ff0000;fill-opacity:1;stroke:none;stroke-width:0.94383353;stroke-miterlimit:4;stroke-dasharray:none;stroke-opacity:1"
       id="path815-3-6-7-5"
       sodipodi:type="arc"
       sodipodi:cx="133.63477"
       sodipodi:cy="115.79126"
       sodipodi:rx="16.053595"
       sodipodi:ry="16.053595"
       sodipodi:start="3.1467414"
       sodipodi:end="3.1415927"
       sodipodi:open="true"
       d="m 117.58138,115.7086 a 16.053595,16.053595 0 0 1 16.11538,-15.970815 16.053595,16.053595 0 0 1 15.99155,16.094805 16.053595,16.053595 0 0 1 -16.07421,16.01225 16.053595,16.053595 0 0 1 -16.03293,-16.05358" />
    <path
       style="opacity:1;fill:#ff0000;fill-opacity:1;stroke:none;stroke-width:0.94383353;stroke-miterlimit:4;stroke-dasharray:none;stroke-opacity:1"
       id="path815-3-6-7-5-3"
       sodipodi:type="arc"
       sodipodi:cx="133.60249"
       sodipodi:cy="183.0625"
       sodipodi:rx="16.053595"
       sodipodi:ry="16.053595"
       sodipodi:start="3.1467414"
       sodipodi:end="3.1415927"
       sodipodi:open="true"
       d="m 117.54911,182.97984 a 16.053595,16.053595 0 0 1 16.11538,-15.97081 16.053595,16.053595 0 0 1 15.99154,16.0948 16.053595,16.053595 0 0 1 -16.0742,16.01225 16.053595,16.053595 0 0 1 -16.03293,-16.05358" />
    <flowRoot
       xml:space="preserve"
       id="flowRoot943-1"
       style="font-style:normal;font-weight:normal;font-size:74.66666412px;line-height:1.25;font-family:sans-serif;letter-spacing:0px;word-spacing:0px;fill:#000000;fill-opacity:1;stroke:none"
       transform="matrix(0.26458333,0,0,0.26458333,-2.6725693,-64.5304)"><flowRegion
         id="flowRegion945-2"
         style="font-size:74.66666412px"><rect
           id="rect947-7"
           width="92.934036"
           height="111.11678"
           x="357.59399"
           y="480.06265"
           style="font-size:74.66666412px" /></flowRegion><flowPara
         id="flowPara949-0"
         style="font-size:96px;text-align:center;text-anchor:middle">B</flowPara></flowRoot>    <path
       style="opacity:1;fill:none;fill-opacity:1;stroke:#000000;stroke-width:4.02330828;stroke-miterlimit:4;stroke-dasharray:none;stroke-opacity:1"
       id="path815-3"
       sodipodi:type="arc"
       sodipodi:cx="321.85986"
       sodipodi:cy="148.61787"
       sodipodi:rx="95.465279"
       sodipodi:ry="95.465279"
       sodipodi:start="3.1467414"
       sodipodi:end="3.1415927"
       sodipodi:open="true"
       d="m 226.39585,148.12635 a 95.465279,95.465279 0 0 1 95.83266,-94.973043 95.465279,95.465279 0 0 1 95.09632,95.710333 95.465279,95.465279 0 0 1 -95.58785,95.21943 95.465279,95.465279 0 0 1 -95.3424,-95.4652" />
    <path
       style="opacity:1;fill:#0000ff;fill-opacity:1;stroke:none;stroke-width:0.94383353;stroke-miterlimit:4;stroke-dasharray:none;stroke-opacity:1"
       id="path815-3-6-7-5-3-5"
       sodipodi:type="arc"
       sodipodi:cx="283.01129"
       sodipodi:cy="115.55911"
       sodipodi:rx="16.053595"
       sodipodi:ry="16.053595"
       sodipodi:start="3.1467414"
       sodipodi:end="3.1415927"
       sodipodi:open="true"
       d="m 266.95791,115.47646 a 16.053595,16.053595 0 0 1 16.11537,-15.970822 16.053595,16.053595 0 0 1 15.99155,16.094802 16.053595,16.053595 0 0 1 -16.0742,16.01225 16.053595,16.053595 0 0 1 -16.03293,-16.05358" />
    <path
       style="opacity:1;fill:#0000ff;fill-opacity:1;stroke:none;stroke-width:0.94383353;stroke-miterlimit:4;stroke-dasharray:none;stroke-opacity:1"
       id="path815-3-6-7-5-3-5-6"
       sodipodi:type="arc"
       sodipodi:cx="282.10614"
       sodipodi:cy="184.0018"
       sodipodi:rx="16.053595"
       sodipodi:ry="16.053595"
       sodipodi:start="3.1467414"
       sodipodi:end="3.1415927"
       sodipodi:open="true"
       d="m 266.05276,183.91915 a 16.053595,16.053595 0 0 1 16.11537,-15.97082 16.053595,16.053595 0 0 1 15.99155,16.0948 16.053595,16.053595 0 0 1 -16.0742,16.01225 16.053595,16.053595 0 0 1 -16.03293,-16.05358" />
    <path
       style="opacity:1;fill:#0000ff;fill-opacity:1;stroke:none;stroke-width:0.94383353;stroke-miterlimit:4;stroke-dasharray:none;stroke-opacity:1"
       id="path815-3-6-7-5-3-5-6-2"
       sodipodi:type="arc"
       sodipodi:cx="356.51434"
       sodipodi:cy="116.27664"
       sodipodi:rx="16.053595"
       sodipodi:ry="16.053595"
       sodipodi:start="3.1467414"
       sodipodi:end="3.1415927"
       sodipodi:open="true"
       d="m 340.46096,116.19399 a 16.053595,16.053595 0 0 1 16.11538,-15.97082 16.053595,16.053595 0 0 1 15.99154,16.0948 16.053595,16.053595 0 0 1 -16.0742,16.01225 16.053595,16.053595 0 0 1 -16.03293,-16.05358" />
    <path
       style="opacity:1;fill:#0000ff;fill-opacity:1;stroke:none;stroke-width:0.94383353;stroke-miterlimit:4;stroke-dasharray:none;stroke-opacity:1"
       id="path815-3-6-7-5-3-5-6-9"
       sodipodi:type="arc"
       sodipodi:cx="357.04889"
       sodipodi:cy="182.39819"
       sodipodi:rx="16.053595"
       sodipodi:ry="16.053595"
       sodipodi:start="3.1467414"
       sodipodi:end="3.1415927"
       sodipodi:open="true"
       d="m 340.99551,182.31554 a 16.053595,16.053595 0 0 1 16.11537,-15.97082 16.053595,16.053595 0 0 1 15.99155,16.0948 16.053595,16.053595 0 0 1 -16.07421,16.01225 16.053595,16.053595 0 0 1 -16.03293,-16.05358" />
    <flowRoot
       xml:space="preserve"
       id="flowRoot943"
       style="font-style:normal;font-weight:normal;font-size:74.66666412px;line-height:1.25;font-family:sans-serif;letter-spacing:0px;word-spacing:0px;fill:#000000;fill-opacity:1;stroke:none"
       transform="matrix(0.26458333,0,0,0.26458333,215.39602,-65.878071)"><flowRegion
         id="flowRegion945"
         style="font-size:74.66666412px"><rect
           id="rect947"
           width="92.934036"
           height="111.11678"
           x="357.59399"
           y="480.06265"
           style="font-size:74.66666412px" /></flowRegion><flowPara
         id="flowPara949"
         style="font-size:96px;text-align:center;text-anchor:middle">A</flowPara></flowRoot>    <path
       style="fill:none;stroke:#000000;stroke-width:2;stroke-linecap:butt;stroke-linejoin:miter;stroke-opacity:1;stroke-miterlimit:4;stroke-dasharray:none"
       d="m 149.73828,115.24836 117.21963,0.2281 v 0"
       id="path1064"
       inkscape:connector-curvature="0" />
    <path
       style="fill:none;stroke:#000000;stroke-width:2;stroke-linecap:butt;stroke-linejoin:miter;stroke-opacity:1;stroke-miterlimit:4;stroke-dasharray:none"
       d="M 266.95791,115.47646 149.20374,180.69022"
       id="path1066"
       inkscape:connector-curvature="0" />
  </g>
</svg>
