<?xml version="1.0" encoding="UTF-8" standalone="no"?>
<!-- Created with Inkscape (http://www.inkscape.org/) -->

<svg
   xmlns:dc="http://purl.org/dc/elements/1.1/"
   xmlns:cc="http://creativecommons.org/ns#"
   xmlns:rdf="http://www.w3.org/1999/02/22-rdf-syntax-ns#"
   xmlns:svg="http://www.w3.org/2000/svg"
   xmlns="http://www.w3.org/2000/svg"
   xmlns:sodipodi="http://sodipodi.sourceforge.net/DTD/sodipodi-0.dtd"
   xmlns:inkscape="http://www.inkscape.org/namespaces/inkscape"
   width="195.66621mm"
   height="195.66624mm"
   viewBox="0 0 195.66621 195.66624"
   version="1.1"
   id="svg8"
   inkscape:version="0.92.3 (2405546, 2018-03-11)"
   sodipodi:docname="import.svg">
  <defs
     id="defs2" />
  <sodipodi:namedview
     id="base"
     pagecolor="#ffffff"
     bordercolor="#666666"
     borderopacity="1.0"
     inkscape:pageopacity="0.0"
     inkscape:pageshadow="2"
     inkscape:zoom="0.49497475"
     inkscape:cx="173.44302"
     inkscape:cy="353.78026"
     inkscape:document-units="mm"
     inkscape:current-layer="layer1"
     showgrid="false"
     inkscape:window-width="1366"
     inkscape:window-height="713"
     inkscape:window-x="0"
     inkscape:window-y="27"
     inkscape:window-maximized="1"
     fit-margin-top="0"
     fit-margin-left="0"
     fit-margin-right="0"
     fit-margin-bottom="0" />
  <metadata
     id="metadata5">
    <rdf:RDF>
      <cc:Work
         rdf:about="">
        <dc:format>image/svg+xml</dc:format>
        <dc:type
           rdf:resource="http://purl.org/dc/dcmitype/StillImage" />
        <dc:title></dc:title>
      </cc:Work>
    </rdf:RDF>
  </metadata>
  <g
     inkscape:label="Calque 1"
     inkscape:groupmode="layer"
     id="layer1"
     transform="translate(-7.5508957,-51.306832)">
    <path
       style="opacity:1;fill:none;fill-opacity:1;stroke:#000000;stroke-width:4;stroke-miterlimit:4;stroke-dasharray:none;stroke-opacity:1"
       id="path815"
       sodipodi:type="arc"
       sodipodi:cx="105.384"
       sodipodi:cy="149.13995"
       sodipodi:rx="95.833107"
       sodipodi:ry="95.833107"
       sodipodi:start="3.1467414"
       sodipodi:end="3.1415927"
       sodipodi:open="true"
       d="M 9.5521659,148.64654 A 95.833107,95.833107 0 0 1 105.75407,53.307561 95.833107,95.833107 0 0 1 201.21679,149.38667 95.833107,95.833107 0 0 1 105.26064,244.97298 95.833107,95.833107 0 0 1 9.5508957,149.13995" />
    <path
       style="opacity:1;fill:none;fill-opacity:1;stroke:#000000;stroke-width:4;stroke-miterlimit:4;stroke-dasharray:none;stroke-opacity:1"
       id="path815-3"
       sodipodi:type="arc"
       sodipodi:cx="105.38401"
       sodipodi:cy="183.22334"
       sodipodi:rx="61.749725"
       sodipodi:ry="61.749725"
       sodipodi:start="3.1467414"
       sodipodi:end="3.1415927"
       sodipodi:open="true"
       d="m 43.635103,182.90541 a 61.749725,61.749725 0 0 1 61.987357,-61.43133 61.749725,61.749725 0 0 1 61.51107,61.90823 61.749725,61.749725 0 0 1 -61.82901,61.59071 61.749725,61.749725 0 0 1 -61.670235,-61.74968" />
    <path
       style="opacity:1;fill:#ff0000;fill-opacity:1;stroke:none;stroke-width:0.94383341;stroke-miterlimit:4;stroke-dasharray:none;stroke-opacity:1"
       id="path815-3-6"
       sodipodi:type="arc"
       sodipodi:cx="32.60688"
       sodipodi:cy="135.03468"
       sodipodi:rx="16.053595"
       sodipodi:ry="16.053595"
       sodipodi:start="3.1467414"
       sodipodi:end="3.1415927"
       sodipodi:open="true"
       d="m 16.553498,134.95203 a 16.053595,16.053595 0 0 1 16.115374,-15.97082 16.053595,16.053595 0 0 1 15.99155,16.0948 16.053595,16.053595 0 0 1 -16.074206,16.01225 16.053595,16.053595 0 0 1 -16.03293,-16.05358" />
    <path
       style="opacity:1;fill:#ff0000;fill-opacity:1;stroke:none;stroke-width:0.94383347;stroke-miterlimit:4;stroke-dasharray:none;stroke-opacity:1"
       id="path815-3-6-7"
       sodipodi:type="arc"
       sodipodi:cx="58.264755"
       sodipodi:cy="100.82417"
       sodipodi:rx="16.053595"
       sodipodi:ry="16.053595"
       sodipodi:start="3.1467414"
       sodipodi:end="3.1415927"
       sodipodi:open="true"
       d="M 42.211373,100.74152 A 16.053595,16.053595 0 0 1 58.326747,84.770698 16.053595,16.053595 0 0 1 74.318297,100.8655 16.053595,16.053595 0 0 1 58.244091,116.87775 16.053595,16.053595 0 0 1 42.211161,100.82417" />
    <path
       style="opacity:1;fill:#ff0000;fill-opacity:1;stroke:none;stroke-width:0.94383353;stroke-miterlimit:4;stroke-dasharray:none;stroke-opacity:1"
       id="path815-3-6-7-5"
       sodipodi:type="arc"
       sodipodi:cx="149.67093"
       sodipodi:cy="98.686012"
       sodipodi:rx="16.053595"
       sodipodi:ry="16.053595"
       sodipodi:start="3.1467414"
       sodipodi:end="3.1415927"
       sodipodi:open="true"
       d="m 133.61755,98.603357 a 16.053595,16.053595 0 0 1 16.11537,-15.97082 16.053595,16.053595 0 0 1 15.99155,16.094804 16.053595,16.053595 0 0 1 -16.07421,16.012249 16.053595,16.053595 0 0 1 -16.03293,-16.053578" />
    <path
       style="opacity:1;fill:#ff0000;fill-opacity:1;stroke:none;stroke-width:0.94383353;stroke-miterlimit:4;stroke-dasharray:none;stroke-opacity:1"
       id="path815-3-6-7-5-3"
       sodipodi:type="arc"
       sodipodi:cx="178.53604"
       sodipodi:cy="139.84552"
       sodipodi:rx="16.053595"
       sodipodi:ry="16.053595"
       sodipodi:start="3.1467414"
       sodipodi:end="3.1415927"
       sodipodi:open="true"
       d="m 162.48266,139.76286 a 16.053595,16.053595 0 0 1 16.11537,-15.97081 16.053595,16.053595 0 0 1 15.99155,16.0948 16.053595,16.053595 0 0 1 -16.0742,16.01225 16.053595,16.053595 0 0 1 -16.03293,-16.05358" />
    <path
       style="opacity:1;fill:#0000ff;fill-opacity:1;stroke:none;stroke-width:0.94383353;stroke-miterlimit:4;stroke-dasharray:none;stroke-opacity:1"
       id="path815-3-6-7-5-3-5"
       sodipodi:type="arc"
       sodipodi:cx="80.180855"
       sodipodi:cy="168.17609"
       sodipodi:rx="16.053595"
       sodipodi:ry="16.053595"
       sodipodi:start="3.1467414"
       sodipodi:end="3.1415927"
       sodipodi:open="true"
       d="M 64.127473,168.09343 A 16.053595,16.053595 0 0 1 80.242847,152.12261 16.053595,16.053595 0 0 1 96.234396,168.21741 16.053595,16.053595 0 0 1 80.16019,184.22967 16.053595,16.053595 0 0 1 64.12726,168.17609" />
    <path
       style="opacity:1;fill:#0000ff;fill-opacity:1;stroke:none;stroke-width:0.94383353;stroke-miterlimit:4;stroke-dasharray:none;stroke-opacity:1"
       id="path815-3-6-7-5-3-5-6"
       sodipodi:type="arc"
       sodipodi:cx="132.56569"
       sodipodi:cy="168.71063"
       sodipodi:rx="16.053595"
       sodipodi:ry="16.053595"
       sodipodi:start="3.1467414"
       sodipodi:end="3.1415927"
       sodipodi:open="true"
       d="m 116.51231,168.62798 a 16.053595,16.053595 0 0 1 16.11537,-15.97082 16.053595,16.053595 0 0 1 15.99155,16.0948 16.053595,16.053595 0 0 1 -16.07421,16.01225 16.053595,16.053595 0 0 1 -16.03293,-16.05358" />
    <path
       style="opacity:1;fill:#0000ff;fill-opacity:1;stroke:none;stroke-width:0.94383353;stroke-miterlimit:4;stroke-dasharray:none;stroke-opacity:1"
       id="path815-3-6-7-5-3-5-6-2"
       sodipodi:type="arc"
       sodipodi:cx="81.249939"
       sodipodi:cy="213.61191"
       sodipodi:rx="16.053595"
       sodipodi:ry="16.053595"
       sodipodi:start="3.1467414"
       sodipodi:end="3.1415927"
       sodipodi:open="true"
       d="M 65.196557,213.52925 A 16.053595,16.053595 0 0 1 81.311931,197.55843 16.053595,16.053595 0 0 1 97.30348,213.65324 16.053595,16.053595 0 0 1 81.229274,229.66549 16.053595,16.053595 0 0 1 65.196344,213.61191" />
    <path
       style="opacity:1;fill:#0000ff;fill-opacity:1;stroke:none;stroke-width:0.94383353;stroke-miterlimit:4;stroke-dasharray:none;stroke-opacity:1"
       id="path815-3-6-7-5-3-5-6-9"
       sodipodi:type="arc"
       sodipodi:cx="133.63477"
       sodipodi:cy="212.54283"
       sodipodi:rx="16.053595"
       sodipodi:ry="16.053595"
       sodipodi:start="3.1467414"
       sodipodi:end="3.1415927"
       sodipodi:open="true"
       d="m 117.58138,212.46018 a 16.053595,16.053595 0 0 1 16.11538,-15.97082 16.053595,16.053595 0 0 1 15.99155,16.0948 16.053595,16.053595 0 0 1 -16.07421,16.01225 16.053595,16.053595 0 0 1 -16.03293,-16.05358" />
    <flowRoot
       xml:space="preserve"
       id="flowRoot943"
       style="font-style:normal;font-weight:normal;font-size:74.66666412px;line-height:1.25;font-family:sans-serif;letter-spacing:0px;word-spacing:0px;fill:#000000;fill-opacity:1;stroke:none"
       transform="matrix(0.26458333,0,0,0.26458333,-0.53453905,-2.6726953)"><flowRegion
         id="flowRegion945"
         style="font-size:74.66666412px"><rect
           id="rect947"
           width="92.934036"
           height="111.11678"
           x="357.59399"
           y="480.06265"
           style="font-size:74.66666412px" /></flowRegion><flowPara
         id="flowPara949"
         style="font-size:96px;text-align:center;text-anchor:middle">A</flowPara></flowRoot>    <flowRoot
       xml:space="preserve"
       id="flowRoot943-1"
       style="font-style:normal;font-weight:normal;font-size:74.66666412px;line-height:1.25;font-family:sans-serif;letter-spacing:0px;word-spacing:0px;fill:#000000;fill-opacity:1;stroke:none"
       transform="matrix(0.26458333,0,0,0.26458333,-2.6725693,-60.254088)"><flowRegion
         id="flowRegion945-2"
         style="font-size:74.66666412px"><rect
           id="rect947-7"
           width="92.934036"
           height="111.11678"
           x="357.59399"
           y="480.06265"
           style="font-size:74.66666412px" /></flowRegion><flowPara
         id="flowPara949-0"
         style="font-size:96px;text-align:center;text-anchor:middle">B</flowPara></flowRoot>  </g>
</svg>
