<?xml version="1.0" encoding="UTF-8" standalone="no"?>
<!-- Created with Inkscape (http://www.inkscape.org/) -->

<svg
   xmlns:dc="http://purl.org/dc/elements/1.1/"
   xmlns:cc="http://creativecommons.org/ns#"
   xmlns:rdf="http://www.w3.org/1999/02/22-rdf-syntax-ns#"
   xmlns:svg="http://www.w3.org/2000/svg"
   xmlns="http://www.w3.org/2000/svg"
   xmlns:sodipodi="http://sodipodi.sourceforge.net/DTD/sodipodi-0.dtd"
   xmlns:inkscape="http://www.inkscape.org/namespaces/inkscape"
   width="293.67599mm"
   height="195.70236mm"
   viewBox="0 0 293.676 195.70235"
   version="1.1"
   id="svg8"
   inkscape:version="0.92.3 (2405546, 2018-03-11)"
   sodipodi:docname="reuse.svg">
  <defs
     id="defs2" />
  <sodipodi:namedview
     id="base"
     pagecolor="#ffffff"
     bordercolor="#666666"
     borderopacity="1.0"
     inkscape:pageopacity="0.0"
     inkscape:pageshadow="2"
     inkscape:zoom="0.35"
     inkscape:cx="1051.7369"
     inkscape:cy="658.54318"
     inkscape:document-units="mm"
     inkscape:current-layer="layer1"
     showgrid="false"
     inkscape:window-width="1366"
     inkscape:window-height="713"
     inkscape:window-x="0"
     inkscape:window-y="27"
     inkscape:window-maximized="1"
     fit-margin-top="0"
     fit-margin-left="0"
     fit-margin-right="0"
     fit-margin-bottom="0" />
  <metadata
     id="metadata5">
    <rdf:RDF>
      <cc:Work
         rdf:about="">
        <dc:format>image/svg+xml</dc:format>
        <dc:type
           rdf:resource="http://purl.org/dc/dcmitype/StillImage" />
        <dc:title></dc:title>
      </cc:Work>
    </rdf:RDF>
  </metadata>
  <g
     inkscape:label="Calque 1"
     inkscape:groupmode="layer"
     id="layer1"
     transform="translate(-7.5508957,-51.270703)">
    <path
       style="opacity:1;fill:none;fill-opacity:1;stroke:#000000;stroke-width:4;stroke-miterlimit:4;stroke-dasharray:none;stroke-opacity:1"
       id="path815"
       sodipodi:type="arc"
       sodipodi:cx="105.384"
       sodipodi:cy="149.13995"
       sodipodi:rx="95.833107"
       sodipodi:ry="95.833107"
       sodipodi:start="3.1467414"
       sodipodi:end="3.1415927"
       sodipodi:open="true"
       d="M 9.5521659,148.64654 A 95.833107,95.833107 0 0 1 105.75407,53.307561 95.833107,95.833107 0 0 1 201.21679,149.38667 95.833107,95.833107 0 0 1 105.26064,244.97298 95.833107,95.833107 0 0 1 9.5508957,149.13995" />
    <path
       style="opacity:1;fill:none;fill-opacity:1;stroke:#000000;stroke-width:4.02330828;stroke-miterlimit:4;stroke-dasharray:none;stroke-opacity:1"
       id="path815-3"
       sodipodi:type="arc"
       sodipodi:cx="203.74995"
       sodipodi:cy="148.74765"
       sodipodi:rx="95.465279"
       sodipodi:ry="95.465279"
       sodipodi:start="3.1467414"
       sodipodi:end="3.1415927"
       sodipodi:open="true"
       d="m 108.28594,148.25613 a 95.465279,95.465279 0 0 1 95.83266,-94.973047 95.465279,95.465279 0 0 1 95.09632,95.710337 95.465279,95.465279 0 0 1 -95.58785,95.21943 95.465279,95.465279 0 0 1 -95.34239,-95.4652" />
    <path
       style="opacity:1;fill:#ff0000;fill-opacity:1;stroke:none;stroke-width:0.94383341;stroke-miterlimit:4;stroke-dasharray:none;stroke-opacity:1"
       id="path815-3-6"
       sodipodi:type="arc"
       sodipodi:cx="47.039436"
       sodipodi:cy="175.65965"
       sodipodi:rx="16.053595"
       sodipodi:ry="16.053595"
       sodipodi:start="3.1467414"
       sodipodi:end="3.1415927"
       sodipodi:open="true"
       d="m 30.986055,175.577 a 16.053595,16.053595 0 0 1 16.115373,-15.97082 16.053595,16.053595 0 0 1 15.99155,16.0948 16.053595,16.053595 0 0 1 -16.074206,16.01225 16.053595,16.053595 0 0 1 -16.03293,-16.05358" />
    <path
       style="opacity:1;fill:#ff0000;fill-opacity:1;stroke:none;stroke-width:0.94383347;stroke-miterlimit:4;stroke-dasharray:none;stroke-opacity:1"
       id="path815-3-6-7"
       sodipodi:type="arc"
       sodipodi:cx="47.573975"
       sodipodi:cy="115.79126"
       sodipodi:rx="16.053595"
       sodipodi:ry="16.053595"
       sodipodi:start="3.1467414"
       sodipodi:end="3.1415927"
       sodipodi:open="true"
       d="M 31.520593,115.7086 A 16.053595,16.053595 0 0 1 47.635967,99.737785 16.053595,16.053595 0 0 1 63.627516,115.83259 16.053595,16.053595 0 0 1 47.55331,131.84484 16.053595,16.053595 0 0 1 31.52038,115.79126" />
    <path
       style="opacity:1;fill:#ff0000;fill-opacity:1;stroke:none;stroke-width:0.94383353;stroke-miterlimit:4;stroke-dasharray:none;stroke-opacity:1"
       id="path815-3-6-7-5"
       sodipodi:type="arc"
       sodipodi:cx="90.871635"
       sodipodi:cy="114.72218"
       sodipodi:rx="16.053595"
       sodipodi:ry="16.053595"
       sodipodi:start="3.1467414"
       sodipodi:end="3.1415927"
       sodipodi:open="true"
       d="M 74.818254,114.63953 A 16.053595,16.053595 0 0 1 90.933627,98.668708 16.053595,16.053595 0 0 1 106.92518,114.76351 16.053595,16.053595 0 0 1 90.850971,130.77576 16.053595,16.053595 0 0 1 74.818041,114.72218" />
    <path
       style="opacity:1;fill:#ff0000;fill-opacity:1;stroke:none;stroke-width:0.94383353;stroke-miterlimit:4;stroke-dasharray:none;stroke-opacity:1"
       id="path815-3-6-7-5-3"
       sodipodi:type="arc"
       sodipodi:cx="88.733482"
       sodipodi:cy="176.19418"
       sodipodi:rx="16.053595"
       sodipodi:ry="16.053595"
       sodipodi:start="3.1467414"
       sodipodi:end="3.1415927"
       sodipodi:open="true"
       d="m 72.680101,176.11153 a 16.053595,16.053595 0 0 1 16.115373,-15.97082 16.053595,16.053595 0 0 1 15.991546,16.0948 16.053595,16.053595 0 0 1 -16.074202,16.01225 16.053595,16.053595 0 0 1 -16.03293,-16.05358" />
    <path
       style="opacity:1;fill:#0000ff;fill-opacity:1;stroke:none;stroke-width:0.94383353;stroke-miterlimit:4;stroke-dasharray:none;stroke-opacity:1"
       id="path815-3-6-7-5-3-5"
       sodipodi:type="arc"
       sodipodi:cx="152.87817"
       sodipodi:cy="127.01658"
       sodipodi:rx="16.053595"
       sodipodi:ry="16.053595"
       sodipodi:start="3.1467414"
       sodipodi:end="3.1415927"
       sodipodi:open="true"
       d="m 136.82479,126.93392 a 16.053595,16.053595 0 0 1 16.11538,-15.97082 16.053595,16.053595 0 0 1 15.99155,16.09481 16.053595,16.053595 0 0 1 -16.07421,16.01225 16.053595,16.053595 0 0 1 -16.03293,-16.05358" />
    <path
       style="opacity:1;fill:#0000ff;fill-opacity:1;stroke:none;stroke-width:0.94383353;stroke-miterlimit:4;stroke-dasharray:none;stroke-opacity:1"
       id="path815-3-6-7-5-3-5-6"
       sodipodi:type="arc"
       sodipodi:cx="153.41272"
       sodipodi:cy="176.19418"
       sodipodi:rx="16.053595"
       sodipodi:ry="16.053595"
       sodipodi:start="3.1467414"
       sodipodi:end="3.1415927"
       sodipodi:open="true"
       d="m 137.35934,176.11153 a 16.053595,16.053595 0 0 1 16.11537,-15.97082 16.053595,16.053595 0 0 1 15.99155,16.0948 16.053595,16.053595 0 0 1 -16.0742,16.01225 16.053595,16.053595 0 0 1 -16.03293,-16.05358" />
    <path
       style="opacity:1;fill:#0000ff;fill-opacity:1;stroke:none;stroke-width:0.94383353;stroke-miterlimit:4;stroke-dasharray:none;stroke-opacity:1"
       id="path815-3-6-7-5-3-5-6-2"
       sodipodi:type="arc"
       sodipodi:cx="238.40442"
       sodipodi:cy="124.34389"
       sodipodi:rx="16.053595"
       sodipodi:ry="16.053595"
       sodipodi:start="3.1467414"
       sodipodi:end="3.1415927"
       sodipodi:open="true"
       d="m 222.35104,124.26123 a 16.053595,16.053595 0 0 1 16.11537,-15.97082 16.053595,16.053595 0 0 1 15.99155,16.09481 16.053595,16.053595 0 0 1 -16.07421,16.01225 16.053595,16.053595 0 0 1 -16.03293,-16.05358" />
    <path
       style="opacity:1;fill:#0000ff;fill-opacity:1;stroke:none;stroke-width:0.94383353;stroke-miterlimit:4;stroke-dasharray:none;stroke-opacity:1"
       id="path815-3-6-7-5-3-5-6-9"
       sodipodi:type="arc"
       sodipodi:cx="238.93896"
       sodipodi:cy="174.59056"
       sodipodi:rx="16.053595"
       sodipodi:ry="16.053595"
       sodipodi:start="3.1467414"
       sodipodi:end="3.1415927"
       sodipodi:open="true"
       d="m 222.88558,174.50791 a 16.053595,16.053595 0 0 1 16.11538,-15.97082 16.053595,16.053595 0 0 1 15.99155,16.0948 16.053595,16.053595 0 0 1 -16.07421,16.01225 16.053595,16.053595 0 0 1 -16.03293,-16.05358" />
    <flowRoot
       xml:space="preserve"
       id="flowRoot943"
       style="font-style:normal;font-weight:normal;font-size:74.66666412px;line-height:1.25;font-family:sans-serif;letter-spacing:0px;word-spacing:0px;fill:#000000;fill-opacity:1;stroke:none"
       transform="matrix(0.26458333,0,0,0.26458333,97.286108,-65.748304)"><flowRegion
         id="flowRegion945"
         style="font-size:74.66666412px"><rect
           id="rect947"
           width="92.934036"
           height="111.11678"
           x="357.59399"
           y="480.06265"
           style="font-size:74.66666412px" /></flowRegion><flowPara
         id="flowPara949"
         style="font-size:96px;text-align:center;text-anchor:middle">A</flowPara></flowRoot>    <flowRoot
       xml:space="preserve"
       id="flowRoot943-1"
       style="font-style:normal;font-weight:normal;font-size:74.66666412px;line-height:1.25;font-family:sans-serif;letter-spacing:0px;word-spacing:0px;fill:#000000;fill-opacity:1;stroke:none"
       transform="matrix(0.26458333,0,0,0.26458333,-2.6725693,-64.5304)"><flowRegion
         id="flowRegion945-2"
         style="font-size:74.66666412px"><rect
           id="rect947-7"
           width="92.934036"
           height="111.11678"
           x="357.59399"
           y="480.06265"
           style="font-size:74.66666412px" /></flowRegion><flowPara
         id="flowPara949-0"
         style="font-size:96px;text-align:center;text-anchor:middle">B</flowPara></flowRoot>  </g>
</svg>
